<?xml version="1.0" encoding="utf-8"?>
<!-- Generator: Adobe Illustrator 16.0.0, SVG Export Plug-In . SVG Version: 6.00 Build 0)  -->
<!DOCTYPE svg PUBLIC "-//W3C//DTD SVG 1.1//EN" "http://www.w3.org/Graphics/SVG/1.1/DTD/svg11.dtd">
<svg version="1.1" id="Layer_1" xmlns="http://www.w3.org/2000/svg" xmlns:xlink="http://www.w3.org/1999/xlink" x="0px" y="0px"
	 width="328.135px" height="126px" viewBox="0 0 328.135 126" enable-background="new 0 0 328.135 126" xml:space="preserve">
<path id="path3481" fill="#858585" d="M25.424,124.087c-2.264-1.027-5.403-3.557-6.976-5.617c-2.351-3.082-2.917-4.924-3.187-10.359
	c-0.39-7.863,1.352-11.93,7.066-16.494c3.104-2.479,4.922-3.098,10.082-3.428c8.257-0.525,13.547,2.035,17.682,8.555
	C60.43,113.044,43.189,132.156,25.424,124.087z M186.54,124.58c-3.764-1.687-9.043-7.195-10.438-10.896
	c-1.607-4.263-1.238-10.701,0.881-15.369c4-8.808,16.828-13.022,25.76-8.467c11.074,5.649,14.294,18.334,7.154,28.19
	C204.842,125.017,194.185,128.001,186.54,124.58z M262.54,124.58c-3.764-1.687-9.043-7.195-10.438-10.896
	c-1.607-4.263-1.238-10.701,0.881-15.369c4-8.808,16.828-13.022,25.76-8.467c11.074,5.649,14.294,18.334,7.154,28.19
	C280.842,125.017,270.185,128.001,262.54,124.58z M62.732,105.251c-0.234-0.414-1.172-3-2.084-5.75s-3.255-7.181-5.208-9.84
	c-9.34-12.734-30.625-13.763-41.541-2.004c-3.138,3.379-6.339,9.559-7.33,14.149c-0.616,2.853-1.082,3.267-3.372,3L0.539,104.5
	L0.27,83.824L0,63.146L7.173,43.99c5.614-14.993,7.643-19.335,9.333-19.978c2.37-0.901,49.574-3.978,50.784-3.31
	c0.413,0.229,0.75,14.923,0.75,32.655c0,23.743,0.316,32.559,1.2,33.441C70.142,87.701,83.173,88,121.74,88
	c28.215,0,51.299,0.203,51.299,0.455c0,0.25-1.078,2.045-2.396,3.987c-1.318,1.942-2.939,5.787-3.601,8.545L165.84,106H114.5
	C86.262,106.001,62.967,105.664,62.732,105.251z M30.234,62.076c9.731-1.039,18.169-2.183,18.75-2.542
	c0.666-0.411,1.056-6.19,1.056-15.625c0-12.617-0.244-15.066-1.554-15.568c-0.854-0.328-8.061-0.18-16.014,0.33
	c-10.485,0.673-14.869,1.336-15.947,2.415c-1.62,1.62-11.454,26.445-11.473,28.964c-0.018,2.301,2.056,3.952,4.938,3.933
	C11.393,63.974,20.502,63.116,30.234,62.076z M222.731,105.251c-0.236-0.414-0.719-2.359-1.072-4.324s-1.979-5.678-3.609-8.25
	l-2.965-4.676h16.979c9.338,0,16.978,0.203,16.978,0.455c0,0.25-1.078,2.045-2.396,3.987c-1.318,1.943-2.939,5.787-3.601,8.546
	l-1.203,5.012H232.5C227.362,106.001,222.965,105.664,222.731,105.251z M298.813,105.384c-0.28-0.486-0.801-2.492-1.153-4.457
	c-0.354-1.965-1.979-5.678-3.609-8.25l-2.966-4.676h18.525h18.524l-0.297,6.16l-0.298,6.162l-7,2.395
	C313.191,105.237,299.685,106.894,298.813,105.384z M83.04,39.5V0h122.5h122.501v39.5V79H205.54H83.04V39.5z"/>
</svg>
