<?xml version="1.0" encoding="utf-8"?>
<!-- Generator: Adobe Illustrator 16.0.0, SVG Export Plug-In . SVG Version: 6.00 Build 0)  -->
<!DOCTYPE svg PUBLIC "-//W3C//DTD SVG 1.1//EN" "http://www.w3.org/Graphics/SVG/1.1/DTD/svg11.dtd">
<svg version="1.1" id="Layer_1" xmlns="http://www.w3.org/2000/svg" xmlns:xlink="http://www.w3.org/1999/xlink" x="0px" y="0px"
	 width="232.908px" height="128.432px" viewBox="0 0 232.908 128.432" enable-background="new 0 0 232.908 128.432"
	 xml:space="preserve">
<path id="path3485" fill="#858585" d="M36.104,127.078c-9.892-3.373-14.196-9.568-14.196-20.434c0-5.593,0.419-7.037,3.25-11.213
	c4.257-6.277,9.369-8.91,17.329-8.923c12.132-0.021,20.421,8.396,20.421,20.732c0,11.832-5.817,18.297-19,21.111
	C42.532,128.646,39.021,128.072,36.104,127.078z M184.583,127.543c-5.881-1.551-13.244-8.328-14.686-13.516
	c-2.105-7.58-0.551-15.18,4.213-20.607c3.799-4.326,6.961-6.022,12.881-6.91c6.299-0.944,12.252,0.896,17.125,5.293
	c5.082,4.587,6.791,8.537,6.791,15.703c0,9.103-5.355,16.925-13.225,19.316C191.517,128.699,189.401,128.814,184.583,127.543z
	 M1.458,104.406c-1.507-1.506-1.649-3.945-1.299-22.299L0.553,61.5L8.73,39.096c4.497-12.322,8.177-23.67,8.177-25.216
	c0-1.787-0.728-3.199-2-3.881c-1.541-0.825-2-2.095-2-5.536V0h100.066c66.719,0,100.708,0.343,101.989,1.029
	c3.117,1.667,4.803,6.033,11.537,29.871l6.387,22.6l0.01,22.733l0.013,22.732l-2.765,3.095c-1.961,2.192-3.756,3.143-6.182,3.266
	c-3.209,0.162-3.473-0.068-4.25-3.709c-3.24-15.182-16.98-25.6-32.154-24.382c-6.918,0.556-11.229,2.42-17.02,7.357
	c-5.211,4.445-6.535,6.515-9.152,14.281l-2.23,6.625H115.81H72.463l-0.709-4.158c-2.806-16.432-20.005-27.383-36.71-23.375
	c-4.682,1.123-12.806,6.224-15.909,9.988c-2.687,3.26-5.622,9.711-6.162,13.545c-0.559,3.953-0.619,4.002-5.193,4.299
	C4.461,106.014,2.671,105.619,1.458,104.406z M57.297,55.468c2.362-2.361,2.774-6.618,2.43-25.091
	C59.491,17.754,59.05,12.87,58.035,11.65c-1.169-1.406-3.685-1.648-17-1.636c-8.595,0.009-16.173,0.361-16.839,0.784
	c-1.498,0.952-2.834,4.131-9.785,23.279c-3.027,8.339-5.504,16.007-5.504,17.041c0,1.033,0.9,2.779,2,3.88
	c1.876,1.875,3.334,2,23.429,2C52.25,57,56.017,56.748,57.297,55.468z M109.079,55.344c1.025-0.929,1.825-3.014,1.821-4.75
	c-0.01-4.336-10.518-38.679-12.151-39.715c-0.737-0.467-7.668-0.855-15.4-0.864c-10.583-0.013-14.539,0.336-16,1.403
	c-1.81,1.323-1.941,2.775-1.941,21.396c0,18.24,0.166,20.159,1.905,22.081C69.122,56.894,70.172,57,88.234,57
	C104.525,57,107.513,56.763,109.079,55.344z M163.335,55.427c0.865-0.863,1.572-3.002,1.572-4.751
	c0-3.848-9.434-37.289-11.078-39.271c-0.93-1.12-5.115-1.406-20.521-1.406h-19.354l-1.623,2.477
	c-1.545,2.358-1.357,3.409,3.973,22.25c3.481,12.307,6.235,20.246,7.29,21.023c1.212,0.893,6.916,1.25,19.935,1.25
	C158.772,57,162.022,56.742,163.335,55.427z M214.08,55.344c2.729-2.471,2.291-6.282-2.742-23.816
	c-4.655-16.218-5.877-19.459-7.83-20.763c-0.604-0.404-9.389-0.741-19.521-0.75c-15.752-0.014-18.687,0.225-20.25,1.64
	c-1.006,0.91-1.82,2.598-1.812,3.75c0.035,4.335,10.92,39.074,12.637,40.33c1.242,0.909,6.791,1.266,19.711,1.266
	C209.597,57,212.521,56.755,214.08,55.344z"/>
</svg>
